ffmpeg started on 2016-12-07 at 17:39:33
Report written to "Output/x264/results/ffmpeg/crowd_run_2160p50slow15000k.log"
Command line:
Tools/ffmpeg/ffmpeg -benchmark -y -i Input/y4m/crowd_run_2160p50.y4m -c:v libx264 -preset slow -b:v 15000k -an Output/x264/encoded/crowd_run_2160p50slow15000k.mkv
ffmpeg version N-82227-gdb23fde Copyright (c) 2000-2016 the FFmpeg developers
  built with gcc 5.4.0 (Ubuntu 5.4.0-6ubuntu1~16.04.2) 20160609
  configuration: --prefix=/home/jaroslav/ffmpeg_build --pkg-config-flags=--static --extra-cflags=-I/home/jaroslav/ffmpeg_build/include --extra-ldflags=-L/home/jaroslav/ffmpeg_build/lib --bindir=/home/jaroslav/bin --enable-gpl --enable-libass --enable-libfdk-aac --enable-libfreetype --enable-libmp3lame --enable-libopus --enable-libtheora --enable-libvorbis --enable-libvpx --enable-libx264 --enable-libx265 --enable-nvenc --enable-libmfx --enable-libxvid --enable-libgsm --enable-libopencore-amrnb --enable-version3 --enable-nonfree
  libavutil      55. 35.100 / 55. 35.100
  libavcodec     57. 66.101 / 57. 66.101
  libavformat    57. 57.100 / 57. 57.100
  libavdevice    57.  2.100 / 57.  2.100
  libavfilter     6. 66.100 /  6. 66.100
  libswscale      4.  3.100 /  4.  3.100
  libswresample   2.  4.100 /  2.  4.100
  libpostproc    54.  2.100 / 54.  2.100
Input #0, yuv4mpegpipe, from 'Input/y4m/crowd_run_2160p50.y4m':
  Duration: 00:00:10.00, start: 0.000000, bitrate: 4976642 kb/s
    Stream #0:0: Video: rawvideo (I420 / 0x30323449), yuv420p(progressive), 3840x2160, SAR 1:1 DAR 16:9, 50 fps, 50 tbr, 50 tbn, 50 tbc
[libx264 @ 0x3d8e1c0] using SAR=1/1
[libx264 @ 0x3d8e1c0] using cpu capabilities: MMX2 SSE2Fast SSSE3 SSE4.2 AVX FMA3 AVX2 LZCNT BMI2
[libx264 @ 0x3d8e1c0] profile High, level 5.2
[libx264 @ 0x3d8e1c0] 264 - core 148 - H.264/MPEG-4 AVC codec - Copyleft 2003-2016 - http://www.videolan.org/x264.html - options: cabac=1 ref=5 deblock=1:0:0 analyse=0x3:0x113 me=hex subme=8 psy=1 psy_rd=1.00:0.00 mixed_ref=1 me_range=16 chroma_me=1 trellis=2 8x8dct=1 cqm=0 deadzone=21,11 fast_pskip=1 chroma_qp_offset=-2 threads=6 lookahead_threads=1 sliced_threads=0 nr=0 decimate=1 interlaced=0 bluray_compat=0 constrained_intra=0 bframes=3 b_pyramid=2 b_adapt=1 b_bias=0 direct=3 weightb=1 open_gop=0 weightp=2 keyint=250 keyint_min=25 scenecut=40 intra_refresh=0 rc_lookahead=50 rc=abr mbtree=1 bitrate=15000 ratetol=1.0 qcomp=0.60 qpmin=0 qpmax=69 qpstep=4 ip_ratio=1.40 aq=1:1.00
Output #0, matroska, to 'Output/x264/encoded/crowd_run_2160p50slow15000k.mkv':
  Metadata:
    encoder         : Lavf57.57.100
    Stream #0:0: Video: h264 (libx264) (H264 / 0x34363248), yuv420p, 3840x2160 [SAR 1:1 DAR 16:9], q=-1--1, 15000 kb/s, 50 fps, 1k tbn, 50 tbc
    Metadata:
      encoder         : Lavc57.66.101 libx264
    Side data:
      cpb: bitrate max/min/avg: 0/0/15000000 buffer size: 0 vbv_delay: -1
Stream mapping:
  Stream #0:0 -> #0:0 (rawvideo (native) -> h264 (libx264))
Press [q] to stop, [?] for help
frame=   19 fps=0.0 q=0.0 size=       0kB time=00:00:00.00 bitrate=N/A speed=   0x    frame=   31 fps= 30 q=0.0 size=       0kB time=00:00:00.00 bitrate=N/A speed=   0x    frame=   41 fps= 26 q=0.0 size=       0kB time=00:00:00.00 bitrate=N/A speed=   0x    frame=   49 fps= 23 q=0.0 size=       0kB time=00:00:00.00 bitrate=N/A speed=   0x    frame=   57 fps= 11 q=0.0 size=       0kB time=00:00:00.00 bitrate=N/A speed=   0x    frame=   62 fps=9.1 q=31.0 size=       1kB time=-00:00:00.01 bitrate=N/A speed=N/A    frame=   63 fps=8.5 q=31.0 size=       1kB time=00:00:00.00 bitrate=5872.0kbits/s speed=0.000135x    frame=   67 fps=8.1 q=34.0 size=       1kB time=00:00:00.08 bitrate=  72.5kbits/s speed=0.00985x    frame=   71 fps=7.7 q=42.0 size=       1kB time=00:00:00.16 bitrate=  36.5kbits/s speed=0.0175x    frame=   77 fps=7.9 q=48.0 size=       1kB time=00:00:00.28 bitrate=  20.9kbits/s speed=0.0286x    frame=   80 fps=7.8 q=48.0 size=       1kB time=00:00:00.34 bitrate=  17.2kbits/s speed=0.0331x    frame=   87 fps=7.8 q=47.0 size=       1kB time=00:00:00.48 bitrate=  12.2kbits/s speed=0.0432x    frame=   92 fps=7.9 q=46.0 size=       1kB time=00:00:00.58 bitrate=  10.1kbits/s speed=0.0499x    frame=   95 fps=7.8 q=46.0 size=       1kB time=00:00:00.64 bitrate=   9.2kbits/s speed=0.0527x    frame=  101 fps=8.0 q=46.0 size=       1kB time=00:00:00.76 bitrate=   7.7kbits/s speed=0.0599x    frame=  103 fps=7.8 q=46.0 size=       1kB time=00:00:00.80 bitrate=   7.3kbits/s speed=0.0606x    frame=  108 fps=7.9 q=45.0 size=       1kB time=00:00:00.90 bitrate=   6.5kbits/s speed=0.0656x    frame=  111 fps=7.8 q=45.0 size=       1kB time=00:00:00.96 bitrate=   6.1kbits/s speed=0.0673x    frame=  118 fps=8.0 q=45.0 size=       1kB time=00:00:01.10 bitrate=   5.3kbits/s speed=0.0742x    frame=  120 fps=7.8 q=45.0 size=       1kB time=00:00:01.14 bitrate=   5.1kbits/s speed=0.0741x    frame=  126 fps=7.9 q=44.0 size=       1kB time=00:00:01.26 bitrate=   4.7kbits/s speed=0.0791x    frame=  127 fps=7.7 q=44.0 size=       1kB time=00:00:01.28 bitrate=   4.6kbits/s speed=0.0776x    frame=  132 fps=7.7 q=44.0 size=       1kB time=00:00:01.38 bitrate=   4.3kbits/s speed=0.081x    frame=  135 fps=7.7 q=44.0 size=       1kB time=00:00:01.44 bitrate=   4.1kbits/s speed=0.0817x    frame=  141 fps=7.7 q=44.0 size=       1kB time=00:00:01.56 bitrate=   3.8kbits/s speed=0.0857x    frame=  143 fps=7.6 q=44.0 size=       1kB time=00:00:01.60 bitrate=   3.7kbits/s speed=0.0852x    frame=  148 fps=7.7 q=44.0 size=       1kB time=00:00:01.70 bitrate=   3.5kbits/s speed=0.0882x    frame=  151 fps=7.6 q=44.0 size=       1kB time=00:00:01.76 bitrate=   3.3kbits/s speed=0.0885x    frame=  156 fps=7.6 q=43.0 size=       1kB time=00:00:01.86 bitrate=   3.2kbits/s speed=0.091x    frame=  159 fps=7.6 q=43.0 size=       1kB time=00:00:01.92 bitrate=   3.1kbits/s speed=0.0915x    frame=  163 fps=7.6 q=43.0 size=       1kB time=00:00:02.00 bitrate=   2.9kbits/s speed=0.0927x    frame=  168 fps=7.6 q=43.0 size=       1kB time=00:00:02.10 bitrate=   2.8kbits/s speed=0.0946x    frame=  171 fps=7.5 q=43.0 size=       1kB time=00:00:02.16 bitrate=   2.7kbits/s speed=0.0947x    frame=  177 fps=7.6 q=43.0 size=       1kB time=00:00:02.28 bitrate=   2.6kbits/s speed=0.0975x    frame=  179 fps=7.5 q=43.0 size=       1kB time=00:00:02.32 bitrate=   2.5kbits/s speed=0.0967x    frame=  185 fps=7.5 q=43.0 size=    5127kB time=00:00:02.44 bitrate=17205.1kbits/s speed=0.0994x    frame=  187 fps=7.4 q=43.0 size=    5127kB time=00:00:02.48 bitrate=16927.7kbits/s speed=0.0984x    frame=  194 fps=7.5 q=43.0 size=    5127kB time=00:00:02.62 bitrate=16023.5kbits/s speed=0.102x    frame=  195 fps=7.4 q=43.0 size=    5127kB time=00:00:02.64 bitrate=15902.2kbits/s speed=0.0999x    frame=  200 fps=7.4 q=43.0 size=    5127kB time=00:00:02.74 bitrate=15322.0kbits/s speed=0.102x    frame=  203 fps=7.3 q=43.0 size=    5127kB time=00:00:02.80 bitrate=14993.8kbits/s speed=0.101x    frame=  209 fps=7.4 q=42.0 size=    5127kB time=00:00:02.92 bitrate=14377.8kbits/s speed=0.104x    frame=  211 fps=7.3 q=42.0 size=    5127kB time=00:00:02.96 bitrate=14183.6kbits/s speed=0.103x    frame=  217 fps=7.4 q=42.0 size=    5127kB time=00:00:03.08 bitrate=13631.2kbits/s speed=0.105x    frame=  219 fps=7.3 q=42.0 size=    5127kB time=00:00:03.12 bitrate=13456.5kbits/s speed=0.104x    frame=  224 fps=7.3 q=42.0 size=    5127kB time=00:00:03.22 bitrate=13038.7kbits/s speed=0.105x    frame=  227 fps=7.3 q=42.0 size=    5127kB time=00:00:03.28 bitrate=12800.2kbits/s speed=0.105x    frame=  233 fps=7.3 q=42.0 size=    5127kB time=00:00:03.40 bitrate=12348.6kbits/s speed=0.107x    frame=  235 fps=7.2 q=42.0 size=    5127kB time=00:00:03.44 bitrate=12205.1kbits/s speed=0.106x    frame=  240 fps=7.3 q=42.0 size=    5127kB time=00:00:03.54 bitrate=11860.4kbits/s speed=0.107x    frame=  243 fps=7.2 q=42.0 size=    5127kB time=00:00:03.60 bitrate=11662.8kbits/s speed=0.107x    frame=  249 fps=7.2 q=42.0 size=    5127kB time=00:00:03.72 bitrate=11286.6kbits/s speed=0.108x    frame=  251 fps=7.2 q=42.0 size=    5127kB time=00:00:03.76 bitrate=11166.6kbits/s speed=0.107x    frame=  255 fps=7.2 q=42.0 size=    5127kB time=00:00:03.84 bitrate=10934.0kbits/s speed=0.108x    frame=  259 fps=7.1 q=42.0 size=    5127kB time=00:00:03.92 bitrate=10710.9kbits/s speed=0.108x    frame=  263 fps=7.2 q=42.0 size=    5127kB time=00:00:04.00 bitrate=10496.8kbits/s speed=0.109x    frame=  267 fps=7.1 q=42.0 size=    5127kB time=00:00:04.08 bitrate=10291.0kbits/s speed=0.109x    frame=  272 fps=7.1 q=42.0 size=    5127kB time=00:00:04.18 bitrate=10044.9kbits/s speed=0.11x    frame=  275 fps=7.1 q=42.0 size=    5127kB time=00:00:04.24 bitrate=9902.8kbits/s speed=0.109x    frame=  279 fps=7.1 q=42.0 size=    5127kB time=00:00:04.32 bitrate=9719.4kbits/s speed=0.11x    frame=  283 fps=7.1 q=42.0 size=    5127kB time=00:00:04.40 bitrate=9542.7kbits/s speed=0.11x    frame=  288 fps=7.1 q=42.0 size=    5127kB time=00:00:04.50 bitrate=9330.7kbits/s speed=0.111x    frame=  291 fps=7.0 q=42.0 size=    5127kB time=00:00:04.56 bitrate=9208.0kbits/s speed=0.11x    frame=  297 fps=7.1 q=42.0 size=    5127kB time=00:00:04.68 bitrate=8971.9kbits/s speed=0.112x    frame=  299 fps=7.0 q=42.0 size=    5127kB time=00:00:04.72 bitrate=8895.9kbits/s speed=0.111x    frame=  304 fps=7.0 q=42.0 size=    5127kB time=00:00:04.82 bitrate=8711.4kbits/s speed=0.111x    frame=  306 fps=6.9 q=39.0 size=    5127kB time=00:00:04.86 bitrate=8639.7kbits/s speed=0.109x    frame=  312 fps=6.9 q=42.0 size=    9454kB time=00:00:04.98 bitrate=15548.2kbits/s speed=0.11x    frame=  317 fps=6.9 q=42.0 size=    9454kB time=00:00:05.08 bitrate=15242.2kbits/s speed=0.111x    frame=  321 fps=6.9 q=42.0 size=    9454kB time=00:00:05.16 bitrate=15006.0kbits/s speed=0.111x    frame=  325 fps=6.9 q=42.0 size=    9454kB time=00:00:05.24 bitrate=14776.9kbits/s speed=0.111x    frame=  329 fps=6.9 q=42.0 size=    9454kB time=00:00:05.32 bitrate=14554.7kbits/s speed=0.111x    frame=  333 fps=6.9 q=42.0 size=    9454kB time=00:00:05.40 bitrate=14339.2kbits/s speed=0.112x    frame=  337 fps=6.9 q=42.0 size=    9454kB time=00:00:05.48 bitrate=14129.9kbits/s speed=0.112x    frame=  341 fps=6.9 q=42.0 size=    9454kB time=00:00:05.56 bitrate=13926.6kbits/s speed=0.112x    frame=  345 fps=6.9 q=42.0 size=    9454kB time=00:00:05.64 bitrate=13729.1kbits/s speed=0.112x    frame=  349 fps=6.9 q=42.0 size=    9454kB time=00:00:05.72 bitrate=13537.1kbits/s speed=0.112x    frame=  353 fps=6.8 q=42.0 size=    9454kB time=00:00:05.80 bitrate=13350.4kbits/s speed=0.113x    frame=  357 fps=6.8 q=42.0 size=    9454kB time=00:00:05.88 bitrate=13168.8kbits/s speed=0.113x    frame=  361 fps=6.8 q=42.0 size=    9454kB time=00:00:05.96 bitrate=12992.1kbits/s speed=0.113x    frame=  366 fps=6.9 q=42.0 size=    9454kB time=00:00:06.06 bitrate=12777.7kbits/s speed=0.114x    frame=  369 fps=6.8 q=42.0 size=    9454kB time=00:00:06.12 bitrate=12652.5kbits/s speed=0.113x    frame=  374 fps=6.8 q=42.0 size=    9454kB time=00:00:06.22 bitrate=12449.1kbits/s speed=0.114x    frame=  377 fps=6.8 q=42.0 size=    9454kB time=00:00:06.28 bitrate=12330.2kbits/s speed=0.113x    frame=  383 fps=6.8 q=42.0 size=    9454kB time=00:00:06.40 bitrate=12099.0kbits/s speed=0.114x    frame=  385 fps=6.8 q=42.0 size=    9454kB time=00:00:06.44 bitrate=12023.9kbits/s speed=0.114x    frame=  389 fps=6.8 q=42.0 size=    9454kB time=00:00:06.52 bitrate=11876.4kbits/s speed=0.114x    frame=  393 fps=6.8 q=42.0 size=    9454kB time=00:00:06.60 bitrate=11732.4kbits/s speed=0.114x    frame=  397 fps=6.8 q=42.0 size=    9454kB time=00:00:06.68 bitrate=11591.9kbits/s speed=0.114x    frame=  401 fps=6.8 q=42.0 size=    9454kB time=00:00:06.76 bitrate=11454.8kbits/s speed=0.115x    frame=  405 fps=6.8 q=42.0 size=    9454kB time=00:00:06.84 bitrate=11320.8kbits/s speed=0.115x    frame=  409 fps=6.8 q=42.0 size=    9454kB time=00:00:06.92 bitrate=11190.0kbits/s speed=0.115x    frame=  413 fps=6.8 q=42.0 size=    9454kB time=00:00:07.00 bitrate=11062.1kbits/s speed=0.115x    frame=  417 fps=6.8 q=42.0 size=    9454kB time=00:00:07.08 bitrate=10937.1kbits/s speed=0.115x    frame=  420 fps=6.8 q=42.0 size=    9454kB time=00:00:07.14 bitrate=10845.2kbits/s speed=0.115x    frame=  422 fps=6.8 q=42.0 size=    9454kB time=00:00:07.18 bitrate=10784.8kbits/s speed=0.115x    frame=  425 fps=6.7 q=42.0 size=    9454kB time=00:00:07.24 bitrate=10695.4kbits/s speed=0.115x    frame=  429 fps=6.7 q=42.0 size=    9454kB time=00:00:07.32 bitrate=10578.6kbits/s speed=0.115x    frame=  434 fps=6.8 q=42.0 size=    9454kB time=00:00:07.42 bitrate=10436.0kbits/s speed=0.115x    frame=  437 fps=6.7 q=42.0 size=    9454kB time=00:00:07.48 bitrate=10352.3kbits/s speed=0.115x    frame=  443 fps=6.8 q=42.0 size=    9454kB time=00:00:07.60 bitrate=10188.9kbits/s speed=0.116x    frame=  445 fps=6.7 q=42.0 size=    9454kB time=00:00:07.64 bitrate=10135.6kbits/s speed=0.115x    frame=  450 fps=6.7 q=42.0 size=    9454kB time=00:00:07.74 bitrate=10004.6kbits/s speed=0.116x    frame=  453 fps=6.7 q=42.0 size=    9454kB time=00:00:07.80 bitrate=9927.7kbits/s speed=0.116x    frame=  459 fps=6.7 q=42.0 size=   14591kB time=00:00:07.92 bitrate=15090.6kbits/s speed=0.116x    frame=  461 fps=6.7 q=42.0 size=   14591kB time=00:00:07.96 bitrate=15014.8kbits/s speed=0.116x    frame=  467 fps=6.7 q=42.0 size=   14591kB time=00:00:08.08 bitrate=14791.8kbits/s speed=0.117x    frame=  469 fps=6.7 q=42.0 size=   14591kB time=00:00:08.12 bitrate=14719.0kbits/s speed=0.116x    frame=  476 fps=6.7 q=42.0 size=   14591kB time=00:00:08.26 bitrate=14469.5kbits/s speed=0.117x    frame=  477 fps=6.7 q=42.0 size=   14591kB time=00:00:08.28 bitrate=14434.6kbits/s speed=0.116x    frame=  482 fps=6.7 q=42.0 size=   14591kB time=00:00:08.38 bitrate=14262.4kbits/s speed=0.117x    frame=  485 fps=6.7 q=42.0 size=   14591kB time=00:00:08.44 bitrate=14161.0kbits/s speed=0.116x    frame=  490 fps=6.7 q=42.0 size=   14591kB time=00:00:08.54 bitrate=13995.2kbits/s speed=0.117x    frame=  493 fps=6.7 q=42.0 size=   14591kB time=00:00:08.60 bitrate=13897.6kbits/s speed=0.117x    frame=  497 fps=6.7 q=42.0 size=   14591kB time=00:00:08.68 bitrate=13769.5kbits/s speed=0.117x    frame=  500 fps=6.7 q=42.0 size=   14591kB time=00:00:08.74 bitrate=13675.0kbits/s speed=0.117x    frame=  500 fps=6.1 q=-1.0 Lsize=   18181kB time=00:00:09.94 bitrate=14982.6kbits/s speed=0.12x    
video:18177kB audio:0kB subtitle:0kB other streams:0kB global headers:0kB muxing overhead: 0.025676%
bench: utime=291.492s
bench: maxrss=2143124kB
[libx264 @ 0x3d8e1c0] frame I:2     Avg QP:31.72  size:613544
[libx264 @ 0x3d8e1c0] frame P:126   Avg QP:41.10  size: 73046
[libx264 @ 0x3d8e1c0] frame B:372   Avg QP:44.25  size: 21993
[libx264 @ 0x3d8e1c0] consecutive B-frames:  0.8%  0.0%  0.0% 99.2%
[libx264 @ 0x3d8e1c0] mb I  I16..4: 12.1% 78.6%  9.3%
[libx264 @ 0x3d8e1c0] mb P  I16..4:  1.7%  4.7%  0.1%  P16..4: 37.1%  7.3%  5.6%  0.0%  0.0%    skip:43.6%
[libx264 @ 0x3d8e1c0] mb B  I16..4:  0.0%  0.1%  0.0%  B16..8: 43.5%  2.1%  0.2%  direct: 0.4%  skip:53.7%  L0:42.4% L1:56.7% BI: 1.0%
[libx264 @ 0x3d8e1c0] final ratefactor: 33.70
[libx264 @ 0x3d8e1c0] 8x8 transform intra:74.6% inter:85.1%
[libx264 @ 0x3d8e1c0] direct mvs  spatial:98.9% temporal:1.1%
[libx264 @ 0x3d8e1c0] coded y,uvDC,uvAC intra: 43.3% 57.2% 22.4% inter: 4.2% 6.3% 0.2%
[libx264 @ 0x3d8e1c0] i16 v,h,dc,p: 36% 21%  6% 37%
[libx264 @ 0x3d8e1c0] i8 v,h,dc,ddl,ddr,vr,hd,vl,hu:  8%  4%  5% 12% 16% 16% 15% 14% 11%
[libx264 @ 0x3d8e1c0] i4 v,h,dc,ddl,ddr,vr,hd,vl,hu:  6%  4%  2% 13% 17% 15% 15% 13% 15%
[libx264 @ 0x3d8e1c0] i8c dc,h,v,p: 45% 17% 18% 19%
[libx264 @ 0x3d8e1c0] Weighted P-Frames: Y:1.6% UV:0.8%
[libx264 @ 0x3d8e1c0] ref P L0: 65.3%  9.3% 15.5%  4.7%  5.1%  0.1%
[libx264 @ 0x3d8e1c0] ref B L0: 92.1%  6.0%  1.4%  0.5%
[libx264 @ 0x3d8e1c0] ref B L1: 98.4%  1.6%
[libx264 @ 0x3d8e1c0] kb/s:14889.87
